<svg xmlns="http://www.w3.org/2000/svg" xmlns:xlink="http://www.w3.org/1999/xlink" viewBox="0,0,256,256" width="50px" height="50px" fill-rule="nonzero"><g fill="#de6639" fill-rule="nonzero" stroke="none" stroke-width="1" stroke-linecap="butt" stroke-linejoin="miter" stroke-miterlimit="10" stroke-dasharray="" stroke-dashoffset="0" font-family="none" font-weight="none" font-size="none" text-anchor="none" style="mix-blend-mode: normal"><g transform="scale(5.12,5.12)"><path d="M25,2c-12.682,0 -23,10.318 -23,23c0,12.682 10.318,23 23,23c12.682,0 23,-10.318 23,-23c0,-12.682 -10.318,-23 -23,-23zM26,37.2v2.8h-2v-2.8c-2.7,-0.3 -6.95,-1.2 -7.15,-7.9h2.1c-0.2,6.3 5.9,6.3 6.1,6.3c5.9,0 6.1,-4 6.1,-4.9c0,-7.1 -13.7,-2.1 -13.7,-11.5c0,-1.9 0.95,-6.1 6.55,-6.4v-2.8h2.05v2.8c4.8,0.2 6.8,4.3 6.6,7.1h-2.1c-0.1,-1.7 -0.7,-5.5 -5.5,-5.5c-4.7,0 -5.6,2.7 -5.6,5c0,6.9 13.7,2.3 13.7,11.3c0,1 -0.45,6 -7.15,6.5z"></path></g></g></svg>